<svg xmlns="http://www.w3.org/2000/svg" x="0px" y="0px" width="100" height="100" viewBox="0,0,256,256">
  <path fill="#ffffff" d="M228.56,74.36c0.12,1.74,0.12,3.49,0.12,5.24c0,53.49-40.8,115.01-115.01,115.01c-22.86,0-44.06-6.66-61.81-18.14   c3.17,0.36,6.34,0.6,9.74,0.6c19.12,0,36.75-6.34,50.81-17.01c-17.91-0.36-33.03-12.15-38.16-28.51c2.49,0.48,5.12,0.72,7.8,0.72   c3.78,0,7.5-0.48,10.99-1.38c-19.17-3.84-33.57-20.66-33.57-40.8c0-0.18,0-0.36,0-0.54c5.64,3.14,12.18,5.04,19.17,5.28   c-11.46-7.68-19.12-20.66-19.12-35.27c0-7.2,1.92-13.8,5.28-19.45c19.41,23.76,48.61,39.06,81.93,40.92   c-0.72-3.84-1.08-7.92-1.08-12.24c0-29.76,24.06-53.82,53.82-53.82c15.12,0,28.8,5.76,38.88,15.12   c12.06-2.28,23.22-6.66,33.57-12.78c-3.84,12.06-12.06,22.32-22.68,28.98c10.08-1.08,19.08-3.84,27.54-7.68   C254.01,49.06,241.33,62.04,228.56,74.36z"/>
</svg>
